<svg xmlns="http://www.w3.org/2000/svg" viewBox="0 0 800 520" role="img" aria-label="Illustration: Spaghetti Bolognese">
  <defs>
    <linearGradient id="bg" x1="0" y1="0" x2="1" y2="1">
      <stop offset="0" stop-color="#f7e0c3"/>
      <stop offset="1" stop-color="#f0bf93"/>
    </linearGradient>
    <linearGradient id="sauce" x1="0" y1="0" x2="0" y2="1">
      <stop offset="0" stop-color="#d04a2a"/>
      <stop offset="1" stop-color="#a83220"/>
    </linearGradient>
  </defs>
  <rect width="800" height="520" fill="url(#bg)"/>
  <circle cx="400" cy="270" r="215" fill="#fff4e3" opacity="0.75"/>
  <!-- sparkles -->
  <g fill="#c2502e" opacity="0.5">
    <path d="M120 110l5 14 14 5-14 5-5 14-5-14-14-5 14-5z"/>
    <path d="M680 150l4 11 11 4-11 4-4 11-4-11-11-4 11-4z"/>
    <path d="M650 420l4 11 11 4-11 4-4 11-4-11-11-4 11-4z"/>
    <path d="M140 400l3 9 9 3-9 3-3 9-3-9-9-3 9-3z"/>
  </g>
  <!-- steam -->
  <g stroke="#b9b0a2" stroke-width="7" stroke-linecap="round" fill="none" opacity="0.55">
    <path d="M340 130c-12 22 12 32 0 54"/>
    <path d="M400 112c-12 22 12 32 0 54"/>
    <path d="M460 130c-12 22 12 32 0 54"/>
  </g>
  <!-- plate -->
  <ellipse cx="400" cy="408" rx="265" ry="34" fill="#8a4b2a" opacity="0.25"/>
  <ellipse cx="400" cy="380" rx="262" ry="80" fill="#ffffff"/>
  <ellipse cx="400" cy="372" rx="225" ry="64" fill="#f3e9d8"/>
  <!-- spaghetti nest -->
  <g stroke="#f0c354" stroke-width="11" stroke-linecap="round" fill="none">
    <path d="M205 360c60-46 140-58 195-44s130 8 195 40"/>
    <path d="M220 380c70-52 150-60 190-46s125 4 175 42"/>
    <path d="M245 392c60-38 120-66 160-52s130 16 160 46"/>
    <path d="M260 350c55-30 115-30 150-20s110 0 140 26"/>
  </g>
  <g stroke="#e2ad3b" stroke-width="7" stroke-linecap="round" fill="none" opacity="0.8">
    <path d="M250 372c70-44 150-52 185-40s115 6 150 36"/>
    <path d="M280 348c60-28 120-30 150-22s95 4 125 24"/>
  </g>
  <!-- sauce -->
  <path d="M268 330c10-38 60-66 132-66s124 26 134 62c6 24-26 40-66 34-20-4-30 12-68 10s-36-14-62-10c-40 6-76-6-70-30z" fill="url(#sauce)"/>
  <!-- meat bits -->
  <g fill="#7c2415">
    <circle cx="320" cy="306" r="9"/>
    <circle cx="372" cy="288" r="8"/>
    <circle cx="428" cy="300" r="10"/>
    <circle cx="478" cy="318" r="8"/>
    <circle cx="350" cy="330" r="7"/>
    <circle cx="450" cy="340" r="7"/>
  </g>
  <!-- parmesan -->
  <g fill="#fff8e6">
    <rect x="336" y="276" width="14" height="6" rx="3" transform="rotate(18 343 279)"/>
    <rect x="400" y="266" width="14" height="6" rx="3" transform="rotate(-12 407 269)"/>
    <rect x="452" y="284" width="14" height="6" rx="3" transform="rotate(24 459 287)"/>
    <rect x="386" y="310" width="12" height="5" rx="2.5" transform="rotate(-20 392 312)"/>
  </g>
  <!-- basil -->
  <g>
    <path d="M398 252c14-18 38-20 52-10-4 18-26 30-44 24-6-2-10-8-8-14z" fill="#3f7d3a"/>
    <path d="M392 258c-12-14-32-14-44-4 4 14 22 22 36 16 5-2 9-8 8-12z" fill="#54994c"/>
    <line x1="398" y1="254" x2="396" y2="270" stroke="#2f5e2b" stroke-width="4" stroke-linecap="round"/>
  </g>
  <!-- fork -->
  <g transform="rotate(12 690 300)">
    <rect x="682" y="240" width="14" height="160" rx="7" fill="#9c6b3f"/>
    <path d="M674 196h6v44h6v-44h6v44h6v-44h6v50c0 10-7 16-15 16s-15-6-15-16z" fill="#b5824f"/>
  </g>
</svg>
